inDegrees=no
num_controls=7
num_derivatives=13
num_iterations=66
num_multipliers=7
num_parameters=0
num_slacks=7
num_states=26
objective=0.509603
objective_accelerations=0.041015
objective_balance=0.002919
objective_effort=0.030183
objective_height=0.323279
objective_ligament=0.112206
solver_duration=961.827392
status=Solve_Succeeded
success=true
DataType=double
version=3
OpenSimVersion=4.5
endheader
time	/jointset/ground_pelvis/pelvis_tilt/value	/jointset/ground_pelvis/pelvis_tx/value	/jointset/ground_pelvis/pelvis_ty/value	/jointset/hip_l/hip_flexion_l/value	/jointset/hip_l/hip_adduction_l/value	/jointset/hip_l/hip_rotation_l/value	/jointset/back/lumbar_extension/value	/jointset/patellofemoral_l/patellar_flexion_l/value	/jointset/knee_l/knee_flexion_l/value	/jointset/knee_l/knee_adduction_l/value	/jointset/knee_l/knee_rotation_l/value	/jointset/ankle_l/ankle_angle_l/value	/jointset/subtalar_l/subtalar_angle_l/value	/jointset/ground_pelvis/pelvis_tilt/speed	/jointset/ground_pelvis/pelvis_tx/speed	/jointset/ground_pelvis/pelvis_ty/speed	/jointset/hip_l/hip_flexion_l/speed	/jointset/hip_l/hip_adduction_l/speed	/jointset/hip_l/hip_rotation_l/speed	/jointset/back/lumbar_extension/speed	/jointset/patellofemoral_l/patellar_flexion_l/speed	/jointset/knee_l/knee_flexion_l/speed	/jointset/knee_l/knee_adduction_l/speed	/jointset/knee_l/knee_rotation_l/speed	/jointset/ankle_l/ankle_angle_l/speed	/jointset/subtalar_l/subtalar_angle_l/speed	/forceset/tau_hip_flexion_l	/forceset/tau_hip_adduction_l	/forceset/tau_hip_rotation_l	/forceset/tau_knee_flexion_l	/forceset/tau_ankle_angle_l	/forceset/tau_subtalar_angle_l	/forceset/tau_lumbar_extension	lambda_cid13_p0	lambda_cid13_p1	lambda_cid13_p2	lambda_cid13_p3	lambda_cid13_p4	lambda_cid13_p5	lambda_cid14_p0	/jointset/ground_pelvis/pelvis_tilt/accel	/jointset/ground_pelvis/pelvis_tx/accel	/jointset/ground_pelvis/pelvis_ty/accel	/jointset/hip_l/hip_flexion_l/accel	/jointset/hip_l/hip_adduction_l/accel	/jointset/hip_l/hip_rotation_l/accel	/jointset/back/lumbar_extension/accel	/jointset/patellofemoral_l/patellar_flexion_l/accel	/jointset/knee_l/knee_flexion_l/accel	/jointset/knee_l/knee_adduction_l/accel	/jointset/knee_l/knee_rotation_l/accel	/jointset/ankle_l/ankle_angle_l/accel	/jointset/subtalar_l/subtalar_angle_l/accel	gamma_cid13_p0	gamma_cid13_p1	gamma_cid13_p2	gamma_cid13_p3	gamma_cid13_p4	gamma_cid13_p5	gamma_cid14_p0
0	-0.01782992595661574	0.04763251484337878	0.9232354478575268	0.3085816938045678	-0.2619573338259182	-0.3172177793116676	-0.3879492264334186	0.249926942118516	0.2499269421184919	-0.1037871864447544	-0.1745135948517449	-0.0008036623358878681	0.03566628559625615	0	0	0	0	0	0	0	0	0	0	0	0	0	0.1194642080201958	-0.03310266768807817	-0.01951261650934671	-0.3388754838714735	0.3447751654194088	-0.07289591615346722	-0.02147218288087735	63.75800378971091	20.64929443498851	-3.922460457438781	-19.24445627015924	-635.2032922167233	-38.91560878044815	-22.94052602651961	-1.477251397142717	-1.54050668299185	-0.8002336110665338	8.034699529287812	-0.4250698189729414	2.169005054401759	-6.705604386934343	7.407556243486825	7.40755624348688	1.64227887915922	-0.05562620942802125	1.335939729206632	0.02425631231208523	2.809636932992035e-08	1.502615847601026e-07	-8.310442786225608e-08	-3.590706541906566e-09	6.981223506209548e-08	8.074276186534631e-08	2.755122175085924e-08
0.01	-0.01790173577002475	0.04755749915124726	0.9231961267495519	0.3089749928491883	-0.261979841304457	-0.3171066486309512	-0.3882867555392802	0.2502919777896667	0.2502919777896674	-0.103709948284336	-0.1745128232193061	-0.0007368478493584369	0.03566615985718957	-0.01443247476525333	-0.01481558412465905	-0.007849435170901111	0.07835768015846326	-0.004607905914407732	0.02221682334308531	-0.06743813472902221	0.07282937537287748	0.07282937537287711	0.01515643642151209	0.0001602992843531449	0.01348167576931457	-9.229785256732857e-05	0.1275129267144596	-0.04471426173026435	-0.02032905689262856	-0.3562756912882191	0.369163842806638	-0.07137625285376496	-0.02587247180897379	71.67809305797276	19.02632493489276	-4.147763265205128	-26.19374832768696	-636.244212450986	-43.44322148508122	-22.94521974803582	-1.436823339447809	-1.423951850311072	-0.7750665440346551	7.690983154405951	-0.4946255687940157	2.246645027613262	-6.752765048813668	7.19395884554159	7.193958845541758	1.408664256001682	0.05273438036974611	1.372104178920261	-0.03605962487159032	-2.485202360194508e-09	5.25307958864601e-08	-2.254769551339925e-09	1.305007148897425e-08	-2.699945020672016e-08	8.14666110915359e-09	7.737021678324636e-09
0.02	-0.01811998589576244	0.04733995410324844	0.9230787576750791	0.3101428048744437	-0.2620516227603699	-0.3167736249061369	-0.3892966353990309	0.2513799733468223	0.2513799733468163	-0.1034898781131776	-0.1745102733174126	-0.0005316520695157657	0.03566309378143297	-0.02928806245965485	-0.02850587117346121	-0.0156095932996309	0.1549025961281731	-0.009854795473594909	0.04437860882022811	-0.1344701507751457	0.1445919771998878	0.144591977199886	0.02856640213718988	0.0003556538888182861	0.02767625866368273	-0.0005880673383565374	0.1355616454087431	-0.05632585577240092	-0.02114549727610906	-0.3736758987050171	0.3935525201938414	-0.06985658955401747	-0.03027276073703963	79.66088653536366	17.3965526224337	-4.376750415840696	-33.23514094623505	-636.3541620179905	-47.87323915006372	-22.95917696267995	-1.561873982972153	-1.315447267820547	-0.7823782026322704	7.672146691537092	-0.5528665479288635	2.157997481213276	-6.624380650354437	7.194201534313482	7.194201534313335	1.292984737992331	-0.04861514540564377	1.478521154217311	-0.05643801433233563	-3.306677405030936e-08	-4.519999298718242e-08	7.859488875957623e-08	2.969084951985506e-08	-1.238111354755358e-07	-6.444943964703913e-08	-1.207717839420997e-08
0.03	-0.01848575529872697	0.04698845048241647	0.922884232692049	0.3120659108630821	-0.2621781306486101	-0.3162228530774696	-0.3909692689715505	0.2531782383182967	0.2531782383182855	-0.1031430841330869	-0.1745083523589979	-0.0001850115200044532	0.03565256378042079	-0.04362240943488171	-0.04187757934003919	-0.02328149509103812	0.2293381513730048	-0.01544419678833851	0.06571416875911006	-0.1994346514518782	0.2146990071892594	0.2146990071892617	0.04064128628256376	5.97205027668007e-05	0.04138257267815851	-0.001615155655537136	0.1127958825552948	-0.03552135273523791	-0.01917554974358365	-0.3381107934302173	0.3468688723809087	-0.06910605960744844	-0.01420957203311174	64.57981979967904	18.94609901272632	-3.749882087917119	-22.5870209647021	-637.5877616848719	-41.64242074502585	-22.98213005265513	-1.332702021231057	-1.36043553778702	-0.7575350884651862	7.272191449000213	-0.5615915728697757	2.112081957479699	-6.339197934416122	6.864654741132417	6.864654741133419	1.142073821500987	-0.01538962105381604	1.276291123355596	-0.140429121029945	-3.733888888205252e-08	-4.451369522831464e-08	1.002185121667723e-07	3.495717346969627e-08	-1.601696492550433e-07	-7.695699690334681e-08	-1.263860297760163e-08
0.04	-0.01898756556476778	0.04650074919057746	0.922613400906888	0.3147219587057715	-0.2623604554799283	-0.315460576307969	-0.3932728901824661	0.2556667137916397	0.2556667137916326	-0.1026800745977721	-0.1745084521716198	0.0002906130893033482	0.03562884592011423	-0.05649623506734386	-0.05574540537486756	-0.0308709537258073	0.3014909669396198	-0.02101818408800014	0.08667959698815668	-0.2606676784519524	0.2826340775739654	0.2826340775739727	0.05180951317557068	-4.850031723823105e-05	0.05347307062434946	-0.003225639197480569	0.09003011970195242	-0.01471684969800916	-0.01720560221115811	-0.302545688155399	0.3001852245679879	-0.06835552966080473	0.001853616670882484	49.55820592177535	20.49119981353414	-3.129114538276846	-12.03090491341716	-637.9465882192999	-35.321875513691	-23.01348257519053	-1.269769714419	-1.414670841470641	-0.7658895713046621	7.215598755893717	-0.5497837449125115	2.083971139246254	-5.878085915022623	6.759809613380469	6.759809613380468	1.111653287518888	-0.01107263219634968	1.155357940560366	-0.173117059284932	-4.1068540685788e-08	-4.179817918836417e-08	1.206209802151287e-07	3.998897259312429e-08	-1.952817058904414e-07	-8.822561511841975e-08	-1.280306311791818e-08
0.05	-0.01961233669234384	0.04587350792803058	0.9222669764517363	0.3180880880453268	-0.2625987314023048	-0.314490546593675	-0.3961712350573003	0.2588243287150152	0.2588243287150105	-0.1021103726654076	-0.174508864023347	0.0008812127518915978	0.03558659871078993	-0.06833720914404796	-0.06962284139590927	-0.03840596905758684	0.3712999774193264	-0.0266707688617866	0.1072366680855059	-0.3185169518423953	0.348570135818196	0.348570135818192	0.06191451538364035	-4.144477841450556e-05	0.06458457146013924	-0.00528231773162177	0.07924947000029296	-0.01083083589054377	-0.01634887538500999	-0.2900296390470904	0.2839058157998283	-0.06422416614709922	0.01035113808005589	44.5178750217351	19.37428562996213	-2.716674174312519	-9.679472024797015	-638.5690387681655	-36.21277738408419	-23.05238465982739	-1.123141510693721	-1.36227108308892	-0.7461516171327593	6.798312143034611	-0.5780690134926729	2.028101808468521	-5.66569634997576	6.462690799656936	6.462690799655535	0.9274740649094221	0.005481028963776691	1.079699800139246	-0.2307276385584388	-4.999550676465816e-08	-1.089828069024051e-07	1.468388027611845e-07	4.257952883610834e-08	-2.424389888666224e-07	-1.166724358609397e-07	-2.230168752929156e-08
